<svg xmlns="http://www.w3.org/2000/svg" viewBox="0 0 777.08 1113.79"><defs><style>.cls-1{fill:#aa2d71;}.cls-2{fill:#e4197e;}.cls-3{fill:#58595b;opacity:0.3;}.cls-4{fill:#ed9404;}.cls-5{fill:#f6c20a;}.cls-6{fill:#efa80a;}.cls-7{fill:#fae10a;opacity:0.7;}.cls-8{fill:#e47d00;}.cls-9{fill:#e88003;}</style></defs><g id="Livello_2" data-name="Livello 2"><g id="Layer_1" data-name="Layer 1"><polygon class="cls-1" points="733.46 1006.86 577.07 971.28 505.45 1113.79 282.14 637.62 510.15 530.69 733.46 1006.86"/><polygon class="cls-2" points="43.61 1006.86 200.01 971.28 271.63 1113.79 494.93 637.62 266.93 530.69 43.61 1006.86"/><polygon class="cls-3" points="507.83 626.57 411.76 913.95 388.56 864.48 494.95 637.62 461.33 621.85 507.83 626.57"/><path class="cls-4" d="M777.08,401.49c0,212.2-172,384.22-384.22,384.22S8.64,613.69,8.64,401.49s172-384.22,384.22-384.22S777.08,189.29,777.08,401.49Z"/><path class="cls-5" d="M768.44,384.22c0,212.2-172,384.22-384.21,384.22S0,596.42,0,384.22,172,0,384.23,0,768.44,172,768.44,384.22Z"/><circle class="cls-6" cx="384.23" cy="384.22" r="291.4"/><path class="cls-7" d="M690.73,399.33c0,160.94-130.47,291.41-291.4,291.41a290.58,290.58,0,0,1-213.46-93.06,290.3,290.3,0,0,0,198.35,78c160.94,0,291.4-130.47,291.4-291.41a290.22,290.22,0,0,0-78-198.35A290.52,290.52,0,0,1,690.73,399.33Z"/><path class="cls-8" d="M118.72,401.49c0-160.94,130.47-291.4,291.41-291.4a290,290,0,0,1,148.41,40.59A290.16,290.16,0,0,0,384.23,92.82c-160.94,0-291.41,130.46-291.41,291.4,0,106.74,57.39,200,143,250.81A291,291,0,0,1,118.72,401.49Z"/><path class="cls-7" d="M113.53,492.32,43.58,562.13A380.73,380.73,0,0,1,7.64,460.79l85.3-85.14c-.08,2.85-.13,5.7-.13,8.57A290.11,290.11,0,0,0,113.53,492.32Z"/><path class="cls-7" d="M562.82,43.93l-70,69.82A290.35,290.35,0,0,0,384.22,92.82c-2.68,0-5.33,0-8,.11L461.54,7.79A380.48,380.48,0,0,1,562.82,43.93Z"/><path class="cls-7" d="M206.91,615.47l-66.16,66a384.49,384.49,0,0,1-35.55-33.14l65.71-65.58A292.08,292.08,0,0,0,206.91,615.47Z"/><path class="cls-7" d="M682,141.36l-66.13,66a291.15,291.15,0,0,0-32.64-36l65.73-65.61A385.46,385.46,0,0,1,682,141.36Z"/><path class="cls-7" d="M279.23,656.13,209,726.24A385.44,385.44,0,0,1,154.15,692l66.62-66.49A289.89,289.89,0,0,0,279.23,656.13Z"/><path class="cls-7" d="M726.58,209.66l-70.24,70.11a290,290,0,0,0-30.5-58.5l66.61-66.48A380.66,380.66,0,0,1,726.58,209.66Z"/><path class="cls-7" d="M422.75,673.1,330.9,764.77a377.44,377.44,0,0,1-42.25-8.31L370,675.28c4.71.24,9.43.35,14.21.35A295.09,295.09,0,0,0,422.75,673.1Z"/><path class="cls-7" d="M764.85,331.66v0L673,423.33a292.94,292.94,0,0,0,2.61-39.11q0-6.83-.32-13.6l81.35-81.2A377,377,0,0,1,764.85,331.66Z"/><path class="cls-9" d="M389.92,234.13h55V572.51H375.15V320.81l-43.34,42.38-34.53-52.62Z"/><path class="cls-5" d="M376,223.67h55V562.05H361.2V310.35l-43.33,42.38-34.54-52.62Z"/><polygon class="cls-7" points="382.74 223.65 292.38 313.83 283.35 300.09 375.97 223.65 382.74 223.65"/><polygon class="cls-7" points="430.97 323.25 430.97 391.88 361.23 461.48 361.23 392.86 430.97 323.25"/><polygon class="cls-7" points="430.97 415.73 430.97 504.69 373.5 562.05 361.23 562.05 361.23 485.34 430.97 415.73"/></g></g></svg>