<?xml version="1.0" encoding="utf-8"?>
<!-- Generator: Adobe Illustrator 26.0.0, SVG Export Plug-In . SVG Version: 6.00 Build 0)  -->
<svg version="1.1" id="Livello_1" xmlns="http://www.w3.org/2000/svg" xmlns:xlink="http://www.w3.org/1999/xlink" x="0px" y="0px"
	 viewBox="0 0 999.2 961" style="enable-background:new 0 0 999.2 961;" xml:space="preserve">
<style type="text/css">
	.st0{clip-path:url(#SVGID_00000029767753266619171980000015795329884206249347_);}
	.st1{fill:#15ACDF;}
	.st2{clip-path:url(#SVGID_00000043432491809116927030000004858597258032267657_);}
	.st3{fill:#EBBC19;}
	.st4{clip-path:url(#SVGID_00000122702084132509334970000003365259309110015149_);}
	.st5{fill:#DE197E;}
	.st6{fill:#FFFFFF;}
	.st7{clip-path:url(#SVGID_00000168819485789881476540000010273180049541566910_);}
	.st8{fill:#2AA785;}
	.st9{fill:#F6D8B2;}
	.st10{fill:#5EB0B1;}
	.st11{fill:#172D4A;}
	.st12{fill:#9A1A49;}
	.st13{fill:#F0A672;}
	.st14{fill:#E2403E;}
	.st15{fill:#601811;}
	.st16{fill:#492648;}
	.st17{fill:#F39450;}
</style>
<g>
	<defs>
		<rect id="SVGID_1_" x="230.9" y="82.1" width="579.8" height="828.5"/>
	</defs>
	<clipPath id="SVGID_00000179639741168090879090000008785742068697647778_">
		<use xlink:href="#SVGID_1_"  style="overflow:visible;"/>
	</clipPath>
	<g style="clip-path:url(#SVGID_00000179639741168090879090000008785742068697647778_);">
		<polygon class="st1" points="356.3,82.1 230.9,910.6 230.9,910.6 810.7,767.1 356.3,82.1 		"/>
	</g>
</g>
<g>
	<defs>
		<rect id="SVGID_00000120538396066600571490000003000566659334398603_" y="213.1" width="824.7" height="632.2"/>
	</defs>
	<clipPath id="SVGID_00000016756830152444157880000013014834957535195040_">
		<use xlink:href="#SVGID_00000120538396066600571490000003000566659334398603_"  style="overflow:visible;"/>
	</clipPath>
	<g style="clip-path:url(#SVGID_00000016756830152444157880000013014834957535195040_);">
		<polygon class="st3" points="0,672.9 824.7,845.2 708.7,213.1 		"/>
	</g>
</g>
<g>
	<defs>
		
			<rect id="SVGID_00000041297874640097417590000018110573045488128441_" x="59.6" y="229.1" transform="matrix(0.9778 -0.2095 0.2095 0.9778 -120.6816 94.6264)" width="653.3" height="775.7"/>
	</defs>
	<clipPath id="SVGID_00000132075708471565048230000004735466221346063288_">
		<use xlink:href="#SVGID_00000041297874640097417590000018110573045488128441_"  style="overflow:visible;"/>
	</clipPath>
	<g style="clip-path:url(#SVGID_00000132075708471565048230000004735466221346063288_);">
		<polygon class="st5" points="622.8,167.1 8,407.2 614,961 622.9,167.1 		"/>
	</g>
</g>
<image style="overflow:visible;opacity:0.3;enable-background:new    ;" width="844" height="739" xlink:href="EA185B84.png"  transform="matrix(1 0 0 1 155.24 4.844365e-04)">
</image>
<image style="overflow:visible;opacity:0.75;enable-background:new    ;" width="800" height="681" xlink:href="EA185B85.png"  transform="matrix(1 0 0 1 193.76 19.5205)">
</image>
<path class="st6" d="M390.9,254.6c0.7,13-6.1,24.7-20.3,35.1c-14.2,10.5-32.2,16.3-53.9,17.4c-12.3,0.5-24.6-1.1-36.4-4.9
	c-16.9-5.2-30.6-13.6-41.2-25c-13.4-14.5-20.7-33.2-21.9-56.1c-0.5-9.1,1.8-19,6.7-29.6c6-12.9,15.3-23.9,27-32
	c14.7-10.3,32.5-16,53.5-17.2c11.3-0.6,22.6,0.2,33.7,2.3c9.8,1.8,18.1,4.7,25,8.7c4.4,2.5,9.2,6.7,14.4,12.5c6.2,7,9.4,13,9.7,18.1
	c0.4,6.8-2.1,12.8-7.3,18c-5.8,5.8-13.8,9.1-24,9.6c-5.3,0.2-10.6-0.5-15.7-1.9c-13.6-3.6-22.3-5.2-26-5.1
	c-5.1,0.3-9.9,2.5-13.5,6.1c-4,3.8-5.9,7.9-5.7,12.1c0.3,5,2.7,9.2,7.3,12.6s10.8,4.9,18.5,4.5c5.4-0.3,10.6-1.6,15.6-3.7
	c12.2-5.1,20.1-7.7,23.7-7.9c8.3-0.6,16.4,2.4,22.2,8.4C387.7,242,390.6,248,390.9,254.6"/>
<path class="st6" d="M495.9,208.2c0.1-2.1-1.1-4-3-4.9c-2.3-1.1-4.8-1.6-7.3-1.6c-3.2-0.2-6.2,1.1-8.3,3.5c-0.8,1.1-1.5,2.4-2,3.7
	c0,2.5,1.4,4.4,4.1,5.7c2.1,1,4.3,1.5,6.6,1.5c2.5,0,4.9-0.9,6.8-2.4C494.9,212.1,495.9,210.3,495.9,208.2 M572.1,260
	c0,10.7-2.6,19.2-7.8,25.6c-5.2,6.4-12.2,9.6-21,9.6c-4.8-0.1-9.6-1.2-14-3.2c-4.4-1.7-8.5-4.4-11.8-7.8c-4.1-4.6-7.6-9.8-10.3-15.3
	c-1.7-3.5-3.5-5.2-5.3-5.2c-15.9,0-25.5,0.7-29,2.2c-1.6,0.6-3.8,3.6-6.6,8.9c-3.4,6.5-8.5,12-14.7,16c-5.5,3.7-11.9,5.7-18.5,5.8
	c-8.5,0-15.4-3.5-20.8-10.6c-5.3-7.1-8-16.3-8-27.6c0-8.9,2.2-19.4,6.5-31.7c3.8-11,8.7-21.6,14.8-31.6c5.4-9.2,9.5-15.7,12.2-19.4
	c5.5-7.5,11.6-13.2,18.3-17.2c8.5-5.1,18.3-7.7,28.2-7.6c12.8,0,23.7,3.3,32.7,10c7.3,5.4,16.7,16.1,28.4,31.9
	c7.1,9.9,13,20.6,17.7,31.9C569,238.9,572.1,250.7,572.1,260"/>
<path class="st6" d="M349.9,380.5c0-2.3-1.4-4.4-3.7-5.2c-2.7-1.1-5.6-1.6-8.5-1.4c-3.7,0.1-6.5,0.9-8.4,2.3c-1.5,1-2.2,2.1-2.1,3.4
	c0.1,1.8,1.4,3.3,3.8,4.4c2.3,1.1,4.9,1.6,7.5,1.5c2.8,0,5.6-0.5,8.3-1.5C348.9,383,349.9,381.8,349.9,380.5 M423,433.7
	c0.3,9.7-2.6,17.2-8.6,22.4c-5,4.3-11.7,6.6-19.9,6.8c-12,0.3-23.7-4.5-35.1-14.6c-6.2-6.2-10.3-10.2-12.2-12
	c-4.9,6.5-9.7,13.1-14.4,19.6c-5.5,4.9-12.7,7.7-20.1,7.8c-13.3,0.4-24-6-32.1-19c-8.9-14.2-13.7-31.1-14.2-50.6
	c-0.8-28.7,4-48.7,14.7-60.2c9.1-9.9,24.4-15.1,45.8-15.8l25.8-0.8c15.3-0.4,29.2,2.3,41.6,8.2c15.2,7.3,23,17.8,23.4,31.4
	c0.3,6.9-1.8,13.7-6.1,19.2c-4.8,4.2-9.6,8.3-14.4,12.4c6.7,5.9,12.5,12.7,17.2,20.3C420,417.3,422.8,425.6,423,433.7"/>
<path class="st6" d="M618,387.5c-1.4,19-5.5,34.6-12.2,46.9c-8.6,15.7-20.6,23-35.9,21.9c-6.4-0.4-12.6-2.1-18.3-4.9
	c-5.7-2.7-9.9-5.8-12.8-9.2c-4.6-5.2-8.5-11-11.7-17.1c-3.3-6.6-5.5-9.9-6.8-10c-0.8-0.1-3,4-6.7,12.1c-2.2,5-5.4,9.5-9.2,13.3
	c-7.2,6.8-16.9,10.4-26.8,9.9c-15.6-1.2-26.8-11-33.6-29.6c-5.1-14.1-7.1-29.6-5.8-46.7c1.5-19.9,6.1-37.1,13.9-51.6
	c10-18.6,23.1-27.3,39.3-26.1c12.2,0.9,23.2,8.4,33,22.4c5.4,8.8,9.1,14.6,11.1,17.5c3.6-6.3,7.8-12.3,12.5-17.8
	c10-11.8,20-17.3,30.1-16.5c15.9,1.2,27.3,12.2,34.1,32.9C617.5,350.8,619.5,368.4,618,387.5"/>
<path class="st6" d="M384.7,515.8c-0.7,9.6-2.9,18.9-6.5,27.8c-4.9,12.1-11.7,23.4-20.2,33.3c-6.2,7.2-11.1,12.5-14.7,16
	c-5.1,5.1-11,9.3-17.4,12.5c-6.8,3.2-14.2,4.7-21.7,4.2c-7.2-0.4-14.2-2.8-20.2-6.9c-10-6.7-20.4-18.3-30.9-34.8
	c-5.8-9.3-10.4-19.3-13.7-29.7c-4.2-12.7-6-24-5.4-33.7c0.6-10.3,3.5-18.6,8.8-24.9c5.3-6.3,12.2-9.2,20.7-8.7
	c9.5,0.6,17.6,4.6,24.5,12.1c5,5.3,9.3,12.6,13.1,21.7c2.1,5.3,4.2,10.6,6.3,15.9c7-13.8,14.1-24.9,21.4-33.1
	c7.8-8.8,16.9-12.9,27.4-12.3c10.2,0.6,17.7,4.9,22.8,13C383.4,495.5,385.3,504.7,384.7,515.8"/>
<path class="st6" d="M466,527c-0.1-1.8-1.3-3.3-3-3.9c-2-0.8-4.2-1-6.3-0.8c-2.7,0.1-5.2,1.4-6.8,3.6c-0.6,1-1.1,2.1-1.4,3.3
	c0.2,2.1,1.5,3.6,3.9,4.5c1.8,0.7,3.8,1,5.7,0.7c2.1-0.2,4.1-1.1,5.6-2.6C465.2,530.7,466.1,528.9,466,527 M534.7,564.9
	c0.8,9.1-0.7,16.5-4.5,22.3c-3.9,5.8-9.6,9.1-17.1,9.8c-4.1,0.3-8.3-0.3-12.2-1.6c-3.9-1.1-7.5-3.1-10.6-5.7
	c-3.8-3.6-7.2-7.7-10-12.2c-1.7-2.8-3.4-4.1-5-4c-13.5,1.2-21.6,2.6-24.4,4.1c-1.3,0.7-3,3.3-5,8c-2.4,5.8-6.2,10.9-11.1,14.7
	c-4.4,3.6-9.7,5.8-15.3,6.4c-7.2,0.7-13.4-1.8-18.4-7.3c-5.1-5.6-8.1-13.1-9-22.8c-0.7-7.5,0.3-16.6,3-27.4c2.3-9.6,5.7-19,10-27.9
	c3.9-8.2,6.8-14,8.8-17.4c3.6-6.2,8.4-11.6,14.2-16c6.8-5,14.9-8,23.3-8.6c10.9-1,20.4,0.9,28.5,5.9c6.6,4,15.4,12.3,26.6,24.8
	c6.8,7.9,12.7,16.5,17.5,25.6C530.5,547.3,534,557,534.7,564.9"/>
<path class="st6" d="M687.4,555.2c1,10.3-3.2,19.4-12.5,27.4c-9,7.6-20.2,12.1-31.9,13.1l-30.1,2.9c-3.4,0.3-10.4,0-21-0.9
	c-13.7-1.3-22.5-3.3-26.3-6c-4.4-3.2-9.2-9.7-14.3-19.6c-7.2-14.2-11.6-29.6-12.9-45.5c-1.7-18,0.3-33.8,6-47.5
	c19.1-45.4,60.5,4.9,55.3,60.9c-0.2,1.9-0.3,3.7-0.2,5.6c0.3,2.7,1.6,3.9,4.1,3.7c0.6-0.1,3.9-1.3,9.8-3.7
	C629,539.2,684.5,524.2,687.4,555.2"/>
<path class="st6" d="M257.6,644.4c0,2.6-0.2,5.1-0.7,7.6c-0.4,2.7-1.4,5.2-2.9,7.4c-1.4,2.1-3.7,3.4-6.2,3.3c-3.4,0-6.1-1.7-8-5.2
	c-1.8-3.5-2.6-7.3-2.5-11.2v-5.9c0-3.4,0.8-6.7,2.6-9.5c1.9-3.1,4.3-4.7,7.1-4.7c3.8,0,6.7,2.2,8.6,6.5
	C257,636.4,257.7,640.4,257.6,644.4"/>
<path class="st6" d="M302.5,645.1c0.1,3.9-0.6,7.7-2.1,11.3c-1.8,3.9-4.5,5.8-8.1,5.8c-1.5,0-3-0.3-4.4-0.8c-1.2-0.4-2.3-1.1-3.2-2
	c-1.2-1.2-2.2-2.4-3.1-3.8c-0.9-1.5-1.5-2.2-1.8-2.2s-0.6,1-1.4,3c-0.4,1.2-1.1,2.3-2,3.3c-1.6,1.7-3.8,2.8-6.2,2.8
	c-3.7,0-6.6-2.1-8.5-6.4c-1.5-3.5-2.3-7.2-2.2-11c-0.1-4.3,0.7-8.5,2.4-12.5c2.1-4.6,5-6.9,8.9-6.9c2.9,0,5.6,1.6,8.2,4.7
	c1.4,2,2.4,3.3,2.9,4c0.7-1.5,1.6-3,2.7-4.4c2.2-3,4.4-4.5,6.8-4.5c3.8,0,6.7,2.4,8.7,7.2C301.7,636.7,302.5,640.9,302.5,645.1"/>
<path class="st6" d="M340.6,635.6c0.1,2.3-0.8,4.5-2.5,6c-2.3,1.3-4.1,2.4-5.3,3.2v4.3c0.1,3.2-0.7,6.4-2.3,9.1
	c-1.8,2.9-4.1,4.3-7.1,4.3s-5.2-1.4-6.9-4.3c-1.5-2.8-2.4-5.8-2.8-9c-0.2-1.2-0.3-2.1-0.3-2.6s-0.1-1-0.1-1.5
	c-2.3-0.8-4.4-2.1-6.2-3.7c-1.8-1.5-2.8-3.7-2.8-6c0-2.5,1.9-4.7,5.7-6.6c4-2,8.5-2.9,12.9-2.9c3.8,0,7.6,0.7,11.1,2.2
	C338.4,630,340.6,632.5,340.6,635.6"/>
<path class="st6" d="M375.9,656.3c0,2.3-1.3,4-4,5.1c-3.1,1.1-6.4,1.6-9.7,1.5c-2.8,0-5.7-0.2-8.5-0.6c-3.5-0.6-5.9-1.6-7.2-3
	c-1.4-1.7-2.4-3.8-2.9-6c-0.7-3.2-1.1-6.5-1-9.9c0-2.7,0.2-5.4,0.7-8c0.6-3.3,1.6-5.5,2.9-6.5c1.7-1.2,3.6-2,5.7-2.3
	c2.9-0.3,5.8-0.4,8.8-0.3c3.2,0,5.4,0.1,6.6,0.2c2,0.1,4,0.6,5.7,1.6c1.6,0.9,2.6,2.6,2.5,4.4c0.1,1.9-0.8,3.8-2.4,4.8
	c-1.6,0.9-3.5,1.4-5.4,1.3c-1.1,0-2.2,0-3.2-0.2c-0.7-0.1-1.5-0.3-2.2-0.4c-0.3,0-0.5,0.1-0.7,0.3c-0.3,0.2-0.5,0.4-0.5,0.6
	c0,0.5,0.3,0.9,0.7,1.1c0.7,0.2,1.5,0.3,2.3,0.3h2.5c1.2-0.1,2.3,0.1,3.4,0.5c1,0.5,1.7,1.6,1.6,2.8c0,1-0.3,2.1-0.8,2.9
	c-0.5,0.8-1.4,1.3-2.3,1.3h-5c-0.8,0-1.6,0.2-2.2,0.7c0.1,0.3,0.3,0.6,0.6,0.8c0.3,0.2,0.7,0.2,1.1,0.2c0.3,0,0.7,0,1,0
	c1.3-0.2,2.1-0.2,2.3-0.2c2.5-0.1,4.9,0.5,7,1.9C375,652.1,376,654.2,375.9,656.3"/>
<path class="st6" d="M398.6,641.6c0-0.6-0.3-1.1-0.9-1.3c-0.7-0.3-1.4-0.4-2.1-0.4c-0.7,0-1.5,0.1-2.1,0.5c-0.3,0.2-0.5,0.5-0.6,0.8
	c0,0.5,0.3,0.8,0.9,1.1c0.6,0.3,1.2,0.4,1.8,0.4c0.7,0,1.4-0.1,2.1-0.3C398.3,642.2,398.6,642,398.6,641.6 M416.3,655.4
	c0.1,2.1-0.7,4.1-2.3,5.5c-1.4,1.1-3.2,1.6-5,1.5c-3,0-5.9-1.3-8.6-3.9c-1.5-1.6-2.5-2.6-2.9-3.1c-1.2,1.6-2.5,3.2-3.7,4.8
	c-1.4,1.2-3.2,1.8-5,1.8c-3.3,0-5.9-1.7-7.8-5c-2.2-3.9-3.3-8.3-3.2-12.7c0-7.1,1.4-12.1,4.1-14.9c2.3-2.4,6.2-3.6,11.5-3.6h6.4
	c3.6-0.1,7.1,0.7,10.3,2.3c3.7,1.9,5.6,4.6,5.6,8c0,1.7-0.6,3.4-1.7,4.7c-1.2,1-2.4,2-3.7,3c1.6,1.5,3,3.3,4.1,5.2
	C415.7,651.1,416.3,653.2,416.3,655.4"/>
<path class="st6" d="M456.3,652.1c0,2.9-1.6,5.4-4.9,7.5c-3.6,2.2-7.8,3.4-12.1,3.2c-2.7,0-5.4-0.5-8-1.5c-3.4-1.2-6.5-3.2-8.8-6
	c-2.9-3.6-4.3-8.1-4.2-12.7c0.1-2.3,0.7-4.5,1.8-6.5c1.5-2.8,3.7-5.1,6.3-6.7c3.6-2.2,7.8-3.3,12-3.2c2.5,0,5,0.3,7.4,0.9
	c1.9,0.4,3.7,1.2,5.4,2.2c1.1,0.8,2.2,1.8,3,2.9c1.1,1.1,1.8,2.6,1.9,4.1c0,1.5-0.7,2.9-1.8,3.9c-1.5,1.3-3.4,1.9-5.4,1.8
	c-1.2,0-2.3-0.2-3.4-0.6c-1.8-0.7-3.7-1.2-5.7-1.4c-1.1,0-2.2,0.4-3,1.2c-0.8,0.6-1.4,1.6-1.4,2.6c0,1.1,0.6,2.2,1.5,2.9
	c1.2,0.9,2.6,1.3,4,1.2c1.2,0,2.4-0.2,3.5-0.6c1.7-0.7,3.5-1.2,5.3-1.5c1.8,0,3.6,0.7,4.8,2.1C455.6,649.1,456.2,650.6,456.3,652.1"
	/>
<path class="st6" d="M481.9,645.2c0.1-1.8-0.3-3.5-1.1-5.1c-0.8-1.2-1.6-1.9-2.5-1.9c-1.2,0-2.2,0.9-2.9,2.8c-0.5,1.3-0.8,2.6-0.8,4
	c-0.1,1.7,0.4,3.4,1.3,4.9c0.5,1,1.4,1.6,2.4,1.7c1.2,0,2.2-0.8,2.9-2.3C481.6,648,481.9,646.6,481.9,645.2 M499.3,645.5
	c0.1,4.4-1.7,8.6-4.9,11.7c-3.7,3.6-8.8,5.5-15.3,5.5c-5.3,0.1-10.4-1.6-14.5-4.9c-4.1-3.2-6.5-8.1-6.4-13.3c0-5,2.1-9.7,5.9-12.9
	c4-3.6,9.3-5.5,14.6-5.4c4.8,0,9.5,1.5,13.4,4.5C496.8,634.1,499.5,639.7,499.3,645.5"/>
<path class="st6" d="M548.3,644.7c0,0.9,0,2.2-0.1,4s-0.1,2.7-0.1,3c0,2.8-1,5.5-2.8,7.6c-1.9,2.3-3.9,3.4-6,3.4
	c-1.2,0-2.4-0.3-3.5-0.8c-0.9-0.4-1.8-1-2.4-1.7c-0.8-1.1-1.5-2.2-2.1-3.4c-0.7-1.4-1.2-2.1-1.5-2.1s-0.7,0.7-1.6,2.2
	c-0.7,1.3-2.1,2.2-3.6,2.2c-1.1,0.1-2.2-0.4-2.9-1.3c-0.7-0.9-1.4-1.8-2-2.7c-0.9,1.7-1.8,3.4-2.6,5.1c-1,1.5-2.8,2.2-5.2,2.2
	c-2.2,0-4.3-0.9-5.7-2.6c-1.6-1.7-2.8-3.7-3.4-6c-0.6-1.9-1.1-3.8-1.4-5.8c-0.2-1.7-0.3-3.3-0.3-5v-2c0-0.5,0-0.9,0-1.3s0-0.9,0-1.3
	v-0.7c0.1-0.3,0.1-0.6,0.1-0.9c0.3-2.8,1.4-5.6,3.2-7.8c1.4-2,3.7-3.2,6.1-3.3c1.9,0.1,3.8,0.7,5.5,1.8c1.7,1,3.3,2.2,4.8,3.6
	c0.5,0.5,1,1,1.4,1.6c0.9,1.1,1.5,1.7,2,1.7c0.3,0,1.1-0.8,2.6-2.5c1.1-1.2,2.3-2.4,3.7-3.4c0.9-0.7,1.8-1.3,2.8-1.8
	c1.3-0.7,2.8-1,4.3-1c3.8,0,6.6,2.1,8.6,6.3c1.6,3.4,2.4,7.1,2.3,10.9v1.2C548.4,644.4,548.4,644.6,548.3,644.7"/>
<path class="st6" d="M593.7,644.4c0,6-1.9,10.6-5.7,13.7c-3.2,2.6-7.7,4.2-13.5,4.7c-0.7,0.1-1.4,0.1-2.1,0.1
	c-0.7,0-1.4-0.1-2.1-0.1c-7.5-0.7-12.7-3-15.8-6.9c-2.6-3.3-3.9-8.2-3.9-14.7c-0.1-3.4,0.6-6.8,2.2-9.9c1.3-2.7,4.1-4.4,7.1-4.3
	c2,0,4,1,6.1,3c2.4,2.2,3.8,5.3,3.7,8.6v4.4c0,0.6,0.3,1.2,0.6,1.7c0.3,0.6,0.8,0.9,1.4,1c1,0.1,1.9-0.5,2.1-1.5
	c-0.1-3,0.1-5.9,0.5-8.8c0.3-2.5,1.5-4.8,3.3-6.6c1.3-1.5,3.2-2.3,5.2-2.4c3.1,0,5.6,1.8,7.7,5.3
	C592.8,635.4,593.8,639.9,593.7,644.4"/>
<path class="st6" d="M638.5,645.1c0.1,3.9-0.6,7.7-2.1,11.3c-1.8,3.9-4.5,5.8-8.1,5.8c-1.5,0-3-0.3-4.4-0.8c-1.2-0.4-2.3-1.1-3.2-2
	c-1.2-1.2-2.2-2.4-3.1-3.8c-0.9-1.5-1.5-2.2-1.8-2.2s-0.6,1-1.4,3c-0.5,1.2-1.1,2.3-2,3.3c-1.6,1.7-3.8,2.8-6.2,2.8
	c-3.7,0-6.6-2.1-8.5-6.4c-1.5-3.5-2.3-7.2-2.2-11c-0.1-4.3,0.7-8.5,2.4-12.5c2-4.6,5-6.9,8.9-6.9c2.9,0,5.6,1.6,8.2,4.7
	c1.4,2,2.4,3.3,2.9,4c0.7-1.6,1.6-3.1,2.7-4.5c2.2-3,4.4-4.5,6.8-4.5c3.8,0,6.7,2.4,8.7,7.2C637.8,636.6,638.5,640.8,638.5,645.1"/>
<path class="st6" d="M663.4,640.6c0-0.5-0.3-1-0.8-1.2c-0.6-0.3-1.2-0.4-1.8-0.4c-0.8,0-1.6,0.3-2.1,0.9c-0.2,0.3-0.4,0.6-0.5,0.9
	c0,0.6,0.4,1.2,1,1.4c0.5,0.3,1.1,0.4,1.7,0.4c0.6,0,1.2-0.2,1.7-0.6C663.1,641.7,663.4,641.2,663.4,640.6 M682.4,653.5
	c0.1,2.3-0.6,4.5-1.9,6.4c-1.3,1.6-3.2,2.5-5.2,2.4c-1.2,0-2.4-0.3-3.5-0.8c-1.1-0.4-2.1-1.1-2.9-2c-1-1.2-1.9-2.4-2.6-3.8
	c-0.4-0.8-0.9-1.3-1.3-1.3c-3.9,0-6.3,0.2-7.2,0.5c-0.4,0.2-1,0.9-1.7,2.2c-0.8,1.6-2.1,3-3.6,4c-1.4,0.9-3,1.4-4.6,1.4
	c-2,0-4-1-5.2-2.6c-1.4-2-2.1-4.4-2-6.9c0.1-2.7,0.6-5.4,1.6-7.9c0.9-2.7,2.2-5.4,3.7-7.8c1.3-2.3,2.3-3.9,3-4.8
	c1.2-1.7,2.8-3.2,4.5-4.3c4.7-2.7,10.6-2.5,15.1,0.6c1.8,1.3,4.2,4,7.1,7.9c1.8,2.5,3.2,5.1,4.4,7.9
	C681.4,647.5,682.2,650.4,682.4,653.5"/>
<path class="st6" d="M720.4,653.6c0,2.6-1.3,4.7-3.8,6.5c-2.4,1.7-5.3,2.5-8.2,2.5h-7.5c-1.7-0.1-3.5-0.4-5.2-0.7
	c-3.4-0.6-5.5-1.3-6.4-2.1c-1.4-1.5-2.4-3.3-3.1-5.2c-1.4-3.7-2.1-7.6-2.1-11.5c-0.1-4,0.8-8,2.6-11.6c2-3.6,4.5-5.4,7.8-5.4
	c2,0,4,1,6.2,2.9c2.4,2,3.8,5,3.8,8.2v5.6c0,0.5-0.1,0.9-0.2,1.4c-0.1,0.5-0.2,0.9-0.2,1.4c0,0.7,0.3,1,0.9,1
	c0.9-0.2,1.7-0.4,2.5-0.7c0.9-0.2,1.8-0.3,2.7-0.3c2.6,0,5.1,0.8,7.1,2.4C719.2,649.2,720.4,651.3,720.4,653.6"/>
<path class="st6" d="M755.7,656.3c0,2.3-1.3,4-4,5.1c-3.1,1.1-6.4,1.6-9.7,1.5c-2.8,0-5.7-0.2-8.5-0.6c-3.5-0.6-5.9-1.6-7.2-3
	c-1.4-1.7-2.4-3.8-2.9-6c-0.7-3.2-1.1-6.5-1-9.9c0-2.7,0.2-5.4,0.7-8c0.6-3.3,1.6-5.5,2.9-6.5c1.7-1.2,3.6-2,5.7-2.3
	c2.9-0.3,5.8-0.4,8.8-0.3c3.2,0,5.4,0.1,6.6,0.2c2,0.1,4,0.6,5.7,1.6c1.6,0.9,2.6,2.6,2.5,4.4c0.1,1.9-0.8,3.8-2.4,4.8
	c-1.6,0.9-3.5,1.4-5.4,1.3c-1.1,0-2.2,0-3.2-0.2c-0.7-0.1-1.5-0.3-2.2-0.4c-0.3,0-0.5,0.1-0.7,0.3c-0.3,0.2-0.5,0.4-0.5,0.6
	c0,0.5,0.2,0.9,0.7,1.1c0.7,0.2,1.5,0.3,2.3,0.3h2.5c1.2-0.1,2.3,0.1,3.4,0.5c1,0.5,1.7,1.6,1.6,2.8c0,1-0.3,2.1-0.8,2.9
	c-0.5,0.8-1.4,1.3-2.3,1.3h-5c-0.8,0-1.6,0.2-2.2,0.7c0.1,0.3,0.3,0.6,0.6,0.8c0.3,0.2,0.7,0.2,1.1,0.2c0.3,0,0.7,0,1,0
	c1.3-0.2,2.1-0.2,2.3-0.2c2.5-0.1,4.9,0.5,7,1.9C754.7,652.1,755.7,654.2,755.7,656.3"/>
<g>
	<defs>
		<polygon id="SVGID_00000134243681987756920630000014413367496118281377_" points="366.6,350.2 361.9,439.9 956.5,471 956.5,73 
			382.7,42.9 		"/>
	</defs>
	<clipPath id="SVGID_00000117649249081211513960000001656493342426080152_">
		<use xlink:href="#SVGID_00000134243681987756920630000014413367496118281377_"  style="overflow:visible;"/>
	</clipPath>
	<g style="clip-path:url(#SVGID_00000117649249081211513960000001656493342426080152_);">
		<path class="st3" d="M509.7,254.2c2.9,3,5.8,6,8.7,9.1c3.8-0.5,7.6-0.9,11.3-1.2c-1.7,3.4-3.3,6.8-4.8,10.3c2,3.7,4,7.4,5.9,11
			c-3.7-1-7.5-1.9-11.2-2.8c-2.4,2.7-4.8,5.4-7.1,8.2c-0.9-4-1.8-8-2.8-12c-3.6-1.9-7.2-3.8-10.9-5.7c3.3-1.7,6.7-3.4,10-5
			C509.1,262,509.4,258,509.7,254.2"/>
		<path class="st5" d="M541.6,192.4c2.6,3.2,5.1,6.5,7.6,9.8c3.8-0.1,7.6-0.2,11.4-0.2c-2,3.3-4,6.5-5.9,9.8
			c1.6,3.8,3.1,7.7,4.6,11.5c-3.6-1.3-7.2-2.6-10.8-3.8c-2.7,2.5-5.4,5-8,7.5c-0.5-4.1-0.9-8.1-1.4-12.1c-3.3-2.2-6.7-4.5-10.1-6.7
			c3.5-1.4,6.9-2.7,10.4-4C540.1,200.3,540.8,196.4,541.6,192.4"/>
		<path class="st1" d="M606.7,154.4c2.2,3.5,4.3,6.9,6.5,10.4c3.8,0.2,7.5,0.5,11.3,0.8c-2.4,3-4.7,6.1-7,9.2
			c1.1,4,2.2,7.9,3.3,11.9c-3.4-1.6-6.8-3.2-10.3-4.8c-3,2.2-5.9,4.5-8.7,6.7c0-4.1,0-8.1,0-12.2c-3-2.5-6.1-5.1-9.3-7.6
			c3.6-1,7.2-2,10.8-3C604.4,162,605.5,158.2,606.7,154.4"/>
		<path class="st3" d="M692.6,112.6c1.8,3.6,3.5,7.3,5.2,11c3.7,0.6,7.4,1.2,11.1,1.8c-2.7,2.8-5.4,5.7-8,8.5c0.7,4,1.3,8,1.9,12.1
			c-3.2-1.9-6.4-3.8-9.7-5.7c-3.2,1.9-6.3,3.9-9.4,5.9c0.5-4,0.9-8.1,1.4-12.1c-2.7-2.8-5.5-5.6-8.4-8.3c3.7-0.7,7.4-1.4,11.1-2
			c1.5-3.7,3.1-7.4,4.7-11.1"/>
		<path class="st5" d="M767.3,128.7c1.3,3.8,2.7,7.6,4,11.4c3.7,0.9,7.3,1.8,10.9,2.8c-3,2.6-6,5.1-8.9,7.7
			c0.2,4.1,0.4,8.1,0.5,12.2c-3-2.2-6-4.4-9-6.5c-3.4,1.6-6.7,3.3-10,5c0.9-4,1.8-8,2.7-11.9c-2.4-3-4.9-6-7.4-9
			c3.7-0.4,7.5-0.7,11.2-1.1c2-3.5,4-7.1,6-10.6"/>
		<path class="st1" d="M835.5,167.9c0.9,3.9,1.8,7.8,2.7,11.6c3.5,1.2,7.1,2.5,10.5,3.8c-3.3,2.3-6.5,4.6-9.8,6.9
			c-0.3,4.1-0.5,8.1-0.8,12.2c-2.7-2.4-5.5-4.9-8.3-7.3c-3.6,1.3-7.1,2.7-10.6,4.1c1.3-3.9,2.7-7.8,4.1-11.6
			c-2.1-3.2-4.2-6.4-6.3-9.6c3.8,0,7.5,0,11.3,0C830.7,174.6,833.1,171.3,835.5,167.9"/>
		<path class="st3" d="M882.8,238c0.5,3.9,1,7.9,1.4,11.8c3.4,1.5,6.8,3.1,10.1,4.7c-3.5,2-7.1,4-10.5,6c-0.7,4-1.5,8-2.2,12
			c-2.4-2.7-4.9-5.3-7.4-8c-3.7,1-7.4,2-11,3.1c1.8-3.7,3.6-7.5,5.4-11.2c-1.7-3.4-3.5-6.8-5.2-10.1c3.8,0.3,7.5,0.6,11.3,1
			C877.2,244.2,880,241.1,882.8,238"/>
		<path class="st5" d="M887,310.3c0,4,0.1,8,0.1,11.9c3.2,1.9,6.4,3.7,9.6,5.6c-3.8,1.6-7.5,3.3-11.2,5c-1.2,3.9-2.4,7.9-3.5,11.8
			c-2.1-2.9-4.3-5.8-6.5-8.6c-3.8,0.7-7.6,1.3-11.4,2c2.2-3.5,4.4-7.1,6.6-10.6c-1.3-3.5-2.7-7.1-4.1-10.6c3.7,0.7,7.5,1.3,11.2,2
			C880.8,315.9,883.9,313.1,887,310.3"/>
		<path class="st8" d="M666.4,318.1c0,0-39.1-0.7-70.9-36.2l-6.6,9.6c0,0,32.1,41,85.8,47.7l2.3-7.8L666.4,318.1z"/>
		<path class="st9" d="M816.8,303.5l6.6-3.1c0,0,21.3-4.5,18.8-9s-16.3-0.9-16.3-0.9s14-8.9,10.3-11.5s-14,7.2-14,7.2
			s4.6-12.9,0.7-13.8s-10.1,14.7-10.1,14.7s-4.2-3.5-7-1.8s5.3,7.7,5.3,7.7S809.7,298.9,816.8,303.5"/>
		<path class="st8" d="M736.9,321.8c0,0,38.9,3.4,74.3-28.6l5.6,10.3c0,0-36.3,37.4-90.4,38.5l-1.5-8L736.9,321.8z"/>
		<path class="st8" d="M734.3,322.8c0,0,31.1,38.2,24.8,57.2s-42.9,24.4-72.4,22.9s-78.4-20.4-22.5-82.5L734.3,322.8z"/>
		<path class="st10" d="M671.2,338.8l-13-11.4c-29.9,36.6-21.1,56.8-3.5,67C650.9,369,671.2,338.8,671.2,338.8"/>
		<path class="st9" d="M588.9,291.6l-6.2-3.7c0,0-20.7-6.7-17.8-10.9s16.3,0.9,16.3,0.9s-13-10.3-9-12.5s13.1,8.7,13.1,8.7
			s-3.2-13.3,0.7-13.8s8.6,15.7,8.6,15.7s4.5-3,7.1-1.1s-6.1,7.1-6.1,7.1S596.5,287.7,588.9,291.6"/>
		<path class="st11" d="M659.1,330.9c0,0-16.1,8.1-3.4,16.5s18.1-5.9,18.1-5.9s-2,16.7,12.8,19.6s12.6-15.7,12.6-15.7
			s-2,15.9,11.5,17.1s15.4-22.8,15.4-22.8s-8.2,21.6,6.1,20.2s9.5-24.8,9.5-24.8s5.9,17,15.6,7.6s-14.2-21.4-14.2-21.4l-85.8-4.4
			c0,0-23,5.9-16.2,14.8S659.1,331,659.1,330.9"/>
		<path class="st5" d="M656.9,311.5c0,0-26.5,19.2-44.7,11.3s5.6-18,5.6-18s-25,4.8-23.7-8.6s17-14.4,17-14.4s-29.4-13.3-21.8-27.7
			s28.4-3.1,28.4-3.1s-28.2-28-5-40.5s34.6,9.4,34.6,9.4s3.8-35.5,20.7-37s13.1,25.4,13.1,25.4s12.3-29.8,31-29.7s6.9,22.6,6.9,22.6
			s20.3-21.4,41.2-20s9.4,27.8,9.4,27.8s21.5-4.9,36.2,9.9s-23.5,28.9-23.5,28.9s24.4-5.6,32.2,10.3s-27.6,25.8-27.6,25.8
			s12.9,7.1,14.3,21.5s-19.8,8.1-19.8,8.1s6.7,10,1.3,20.6s-33.3-11.8-33.3-11.8L656.9,311.5z"/>
		<path class="st12" d="M656.1,307.2c0,0-29.2,6.4-30.1-1.2s14.4-14.8,16.8-14.6s-29.9-10.2-24.1-25s27.4,3.5,27.4,3.5
			S616.9,248,629.5,239s33.3,22,33.3,22s-14-39.6,1.9-36.7s20.7,25.9,20.7,25.9s-8.5-31.5,9.3-30.1s9,27.9,9,27.9
			s19.4-39.9,36.3-31.8s-3.1,36.6-3.1,36.6s18.1-11,35.3,1.9s-16.4,18.9-16.4,18.9s30.4,11.4,27.6,22.4s-29-11.5-29-11.5
			s24,29.9,16.5,36.1s-26-14.6-26-14.6L656.1,307.2z"/>
		<path class="st9" d="M748.9,300.8c-1.4,26,9.3,47.8-49.6,44.7c-55.9-2.9-46-23.6-44.7-49.6c1.4-26,23.6-46,49.6-44.7
			S750.2,274.8,748.9,300.8"/>
		<path class="st13" d="M707.4,345.8c49.8,0.7,40.2-20.2,41.5-44.9c0.5-8.4-1.4-16.8-5.2-24.2l-22.9-0.4
			C720.7,276.3,730.7,331.1,707.4,345.8"/>
		<path class="st14" d="M693.2,294.1c-0.1,1.5-3.1,2.6-6.7,2.4s-6.4-1.5-6.4-3s3-2.6,6.7-2.4S693.2,292.6,693.2,294.1"/>
		<path class="st14" d="M724.2,295.7c-0.1,1.5-3,2.6-6.6,2.4s-6.4-1.5-6.4-3s3-2.6,6.6-2.4S724.3,294.2,724.2,295.7"/>
		<path class="st15" d="M742.9,324.1c2.2,4-0.5,9.6-6.1,11.6c-24,8.8-50.5,7.4-73.4-3.8c-5.3-2.6-7.4-8.4-4.8-12.2s7.9-4.7,12.1-2.6
			c18.9,9.3,40.7,10.4,60.4,3.2C735.5,318.6,740.7,320.1,742.9,324.1"/>
		<path class="st16" d="M692.3,304.7c-0.5-3.4-3.8-5.8-7.2-5.3c-2.5,0.4-4.5,2.2-5.2,4.6l-1.6-0.4c2.2-8.3,14.2-7.7,15.5,0.8
			L692.3,304.7"/>
		<path class="st16" d="M723.4,306.4c-1-6.8-10.6-7.3-12.4-0.6l-1.6-0.4c2.2-8.3,14.2-7.7,15.5,0.8L723.4,306.4"/>
		<path class="st6" d="M694.4,332.4c2.4,0.1,4.7-1,6-3c1.1,2.1,3.3,3.5,5.6,3.6c3.6,0.3,6.7-2.4,7-6c0.1-0.9,0-1.7-0.3-2.6
			c-8.1,0.9-16.2,0.4-24.2-1.3c-0.3,0.7-0.5,1.5-0.6,2.3C687.9,329.2,690.7,332.3,694.4,332.4C694.4,332.4,694.4,332.4,694.4,332.4"
			/>
		<path class="st14" d="M715,312.8c-0.2,4.6-6.7,8-14.4,7.6s-13.8-4.5-13.5-9s6.7-8,14.4-7.6S715.2,308.3,715,312.8"/>
		<path class="st17" d="M707.7,307.9c-0.1,1.3-3,2.2-6.4,2s-6.2-1.4-6.2-2.7s3-2.2,6.4-2S707.7,306.6,707.7,307.9"/>
		<path class="st12" d="M665.5,262c0,0-19.8,11.9-13.1,17.1s11-1.8,11-1.8s-2.2,6.2,5,6.6s5.4-10.6,5.4-10.6s0,11,10,11.7
			s0.9-17.7,0.9-17.7s7.7,19.7,17.5,18.6s6.4-15.5,6.4-15.5s1.3,13.9,9.7,14.8s7.7-12.1,7.7-12.1s-1.4,15,6.8,14.5
			s4.4-15.7,4.4-15.7s-4,16.2,8.3,16.4s8.9-17.7,8.9-17.7S722,244.5,720.6,244s-34.6-1.8-34.6-1.8l-8.4,7.7"/>
		<path class="st6" d="M669.4,322.3c6.3,1.3,7-2.6,7-2.6s0.4,7.6,5,7.7s7.1-4.1,7.1-4.1c-6.2-1.3-12.2-3.4-17.8-6.2
			c-2.1-1-4.4-1.3-6.7-0.9C664,316.2,663.1,321,669.4,322.3"/>
		<path class="st6" d="M723.9,328c5.7-0.9,4.8-6.9,4.8-6.9s2.7,5.1,7.7,4.7s4.6-3.9,4.6-4c-2.8-2.2-6.5-2.8-9.8-1.5
			c-4.8,1.8-9.8,3.1-14.9,3.8C717.5,327,720.7,328.7,723.9,328"/>
	</g>
</g>
<path class="st6" d="M753,505.1c-1.3,9.5-7.8,15.7-19.3,18.7c-10.2,2.7-23.8,2.9-40.7,0.6c-11.7-1.5-23.3-4-34.6-7.5
	c-14.2-4.5-23.5-10-27.9-16.4c-4.3-6.4-7.1-15.2-8.5-26.4s-0.9-25,1.3-41.2c1.5-11.1,3.9-22,7.4-32.7c4.4-13.4,9.6-21.7,15.6-25
	c7.6-4.1,16.1-6.3,24.7-6.3c6.2-0.1,18.3,1.2,36.3,3.7c13.1,1.8,22.1,3.3,26.9,4.5c10.2,2.4,17.7,5.7,22.7,9.7
	c6.2,5,8.8,11.5,7.7,19.5c-1.2,9-5.4,15.2-12.6,18.5c-5.9,2.8-13.6,3.5-23,2.2c-4.5-0.5-8.9-1.4-13.2-2.5c-2.9-0.9-5.9-1.9-8.9-3
	c-1.1,0-2.2,0.2-3.2,0.6c-1.4,0.5-2.1,1.2-2.2,2.1c-0.5,2,0.5,4.1,2.3,5c1.8,1,4.9,1.8,9.2,2.4c1.6,0.2,3.3,0.4,5,0.7
	s3.4,0.5,5.2,0.7c6.3,0.9,10.9,2.2,13.9,4.2c4,2.7,5.6,6.8,4.8,12.3c-0.5,4.3-2.3,8.3-5.1,11.6c-2.5,3.1-6.5,4.5-10.4,3.9l-20.6-2.9
	c-3.3-0.4-6.7,0.1-9.7,1.5c0.3,1.4,1.1,2.7,2.2,3.7c1.3,0.8,2.7,1.3,4.2,1.5c1.8,0.2,3.2,0.4,4.4,0.4c5.5,0.1,8.8,0.2,9.8,0.4
	c11.9,1.6,21.2,5.5,28,11.6C751.6,487.5,754.3,495.4,753,505.1"/>
<path class="st6" d="M1146.4,760.4"/>
<g>
	
		<image style="overflow:visible;opacity:0.75;" width="2024" height="698" xlink:href="EA185B83.png"  transform="matrix(0.24 0 0 0.24 258.84 681.2401)">
	</image>
	<g>
		<g>
			<path class="st6" d="M269.8,824.2c-2-1.1-3-6.2-2.8-15.2c0.1-9,0.5-14.5,0.9-16.4c3.3-14,9.5-24.5,18.6-31.5
				c9-7,19.7-12.9,32.1-17.8c5-2,7.3-4,6.9-6.2c-0.4-2.1-1.8-3.7-4.3-4.8c-2.5-1-5.2-1.2-8.2-0.6c-2.9,0.7-4.5,2.7-4.6,6.3
				c-0.1,1.3-0.6,2.4-1.4,3.4c-1.7,1.8-4.7,2.6-9.2,2.6c-4.4-0.1-8.8-0.5-13.1-1.4c-2.9-0.6-5.6-1.4-8.2-2.3c-2.5-1-4.8-2.6-6.7-4.9
				c-2.3-2.7-1.8-7.5,1.5-14.4c3.3-6.9,6.3-11.8,9-14.6c8.6-8.9,19-14.2,31.3-15.9c12.3-1.7,23.7,0.2,34.2,5.8
				c10,5.4,17.4,14.1,22.2,26.2c4.8,12.1,4.3,23.4-1.6,33.8c-5.1,9-12.4,15-22,17.9c-9.6,2.9-16.8,6.8-21.6,11.7
				c7.6-0.2,15.1-0.4,22.7-0.7c7.6-0.3,12.6-0.3,15,0c2.3,0.1,4.3,2,5.8,5.5c1.6,3.5,2.7,7.5,3.3,12s0.7,8.8,0.4,13
				c-0.4,4.2-1.4,7-3,8.4c-0.9,0.8-6.1,1.4-15.7,1.8c-9.6,0.4-20.1,0.5-31.6,0.5c-11.5,0-22.2-0.2-32.2-0.5
				C277.5,825.6,271.6,825,269.8,824.2z"/>
			<path class="st6" d="M495.9,764.8c-1,16.8-5.4,31.1-13.1,42.8c-7.7,11.8-21.4,18.1-40.9,18.9c-20.7,0.8-36.4-5.6-47-19.3
				c-10.6-13.7-15.3-31.9-14.1-54.6c1-16.1,5.2-30,12.5-41.7c7.3-11.7,20.7-18.4,40.3-20c20.8-1.6,36.8,4.7,47.8,18.9
				C492.4,724.1,497.3,742.4,495.9,764.8z M455.3,760.5c0.4-6.6-1.1-12-4.3-16.2c-3.2-4.2-7.9-6-14-5.5c-5.7,0.5-9.7,2.5-11.8,5.9
				c-2.2,3.4-3.4,7.5-3.6,12.2c-0.4,6.7,0.9,12,4.1,16.1c3.1,4,7.7,5.9,13.8,5.6c5.7-0.2,9.7-2.1,12-5.5
				C453.6,769.6,454.9,765.4,455.3,760.5z"/>
			<path class="st6" d="M506.6,824.2c-2-1.1-3-6.2-2.8-15.2c0.1-9,0.5-14.5,0.9-16.4c3.3-14,9.5-24.5,18.6-31.5
				c9-7,19.7-12.9,32.1-17.8c5-2,7.3-4,6.9-6.2c-0.4-2.1-1.8-3.7-4.3-4.8c-2.5-1-5.2-1.2-8.2-0.6c-2.9,0.7-4.5,2.7-4.6,6.3
				c-0.1,1.3-0.6,2.4-1.4,3.4c-1.7,1.8-4.7,2.6-9.2,2.6c-4.4-0.1-8.8-0.5-13.1-1.4c-2.9-0.6-5.6-1.4-8.2-2.3c-2.5-1-4.8-2.6-6.7-4.9
				c-2.3-2.7-1.8-7.5,1.5-14.4c3.3-6.9,6.3-11.8,9-14.6c8.6-8.9,19-14.2,31.3-15.9c12.3-1.7,23.7,0.2,34.2,5.8
				c10,5.4,17.4,14.1,22.2,26.2c4.8,12.1,4.3,23.4-1.6,33.8c-5.1,9-12.4,15-22,17.9c-9.6,2.9-16.8,6.8-21.6,11.7
				c7.6-0.2,15.1-0.4,22.7-0.7c7.6-0.3,12.6-0.3,15,0c2.3,0.1,4.3,2,5.8,5.5c1.6,3.5,2.7,7.5,3.3,12s0.7,8.8,0.4,13
				c-0.4,4.2-1.4,7-3,8.4c-0.9,0.8-6.1,1.4-15.7,1.8c-9.6,0.4-20.1,0.5-31.6,0.5c-11.5,0-22.2-0.2-32.2-0.5
				C514.3,825.6,508.4,825,506.6,824.2z"/>
			<path class="st6" d="M621.3,793c-2.9-8.5-4.1-17.9-3.6-28.3c0.5-10.4,3.3-20.6,8.3-30.4c5.1-9.9,12.6-18.8,22.7-26.9
				c10.1-8.1,23.3-14,39.5-17.9c3.8-0.8,7,0.7,9.8,4.3c2.8,3.7,5,7.9,6.6,12.7c1.6,4.8,2.5,9.3,2.8,13.6c0.3,4.3-0.2,6.6-1.4,7.1
				c-2.6,0.9-5.2,1.8-7.9,2.6c-2.7,0.9-5.5,2.2-8.4,4.1c8.4,2.6,15.9,8.1,22.4,16.4c6.5,8.3,10,17.3,10.3,27
				c0.5,13.3-3.7,24.4-12.5,33.2c-8.8,8.8-19.2,14-31.1,15.6c-7.1,0.9-14.1,0.6-21.2-1c-7-1.5-13.4-4.4-19.1-8.7
				C630.1,810.2,624.4,802.4,621.3,793z M667.1,769.4c-3.8,1.5-4.9,4.5-3.6,9.1c1.4,4.6,4.1,6.7,8.2,6.3c4-0.4,5.8-2.9,5.5-7.8
				c-0.2-2.5-1.3-4.7-3.3-6.5C672,768.7,669.7,768.3,667.1,769.4z"/>
		</g>
	</g>
</g>
</svg>
