<svg xmlns="http://www.w3.org/2000/svg" viewBox="0 0 777.08 1113.79"><defs><style>.cls-1{fill:#aa2d71;}.cls-2{fill:#e4197e;}.cls-3{fill:#58595b;opacity:0.3;}.cls-4{fill:#bc2406;}.cls-5{fill:#cd7f32;}.cls-6{fill:#fff;opacity:0.2;}</style></defs><g id="Livello_2" data-name="Livello 2"><g id="Layer_1" data-name="Layer 1"><polygon class="cls-1" points="733.47 1006.86 577.07 971.28 505.45 1113.79 282.15 637.62 510.15 530.69 733.47 1006.86"/><polygon class="cls-2" points="43.62 1006.86 200.01 971.28 271.63 1113.79 494.94 637.62 266.93 530.69 43.62 1006.86"/><polygon class="cls-3" points="507.83 626.57 411.76 913.95 388.56 864.48 494.96 637.62 461.33 621.85 507.83 626.57"/><path class="cls-4" d="M777.08,401.49c0,212.2-172,384.22-384.22,384.22S8.64,613.69,8.64,401.49s172-384.22,384.22-384.22S777.08,189.29,777.08,401.49Z"/><path class="cls-5" d="M768.44,384.22c0,212.2-172,384.22-384.22,384.22S0,596.42,0,384.22,172,0,384.22,0,768.44,172,768.44,384.22Z"/><circle class="cls-5" cx="384.22" cy="384.22" r="291.4"/><path class="cls-6" d="M690.73,399.33c0,160.94-130.47,291.41-291.4,291.41a290.56,290.56,0,0,1-213.46-93.06,290.3,290.3,0,0,0,198.35,78c160.94,0,291.4-130.47,291.4-291.41a290.22,290.22,0,0,0-78-198.35A290.52,290.52,0,0,1,690.73,399.33Z"/><path class="cls-4" d="M118.72,401.49c0-160.94,130.47-291.4,291.41-291.4a290,290,0,0,1,148.41,40.59A290.17,290.17,0,0,0,384.22,92.82c-160.93,0-291.4,130.46-291.4,291.4,0,106.74,57.39,200,143,250.81A291,291,0,0,1,118.72,401.49Z"/><path class="cls-6" d="M113.53,492.32,43.58,562.13A381.1,381.1,0,0,1,7.63,460.79l85.31-85.14c-.09,2.85-.13,5.7-.13,8.57A290.11,290.11,0,0,0,113.53,492.32Z"/><path class="cls-6" d="M562.82,43.93l-70,69.82A290.26,290.26,0,0,0,384.22,92.82q-4,0-8,.11L461.54,7.79A380.61,380.61,0,0,1,562.82,43.93Z"/><path class="cls-6" d="M206.91,615.47l-66.16,66a384.49,384.49,0,0,1-35.55-33.14l65.71-65.58A292.08,292.08,0,0,0,206.91,615.47Z"/><path class="cls-6" d="M682,141.36l-66.13,66a291.15,291.15,0,0,0-32.64-36l65.73-65.61A385.46,385.46,0,0,1,682,141.36Z"/><path class="cls-6" d="M279.23,656.13,209,726.24A385.44,385.44,0,0,1,154.15,692l66.62-66.49A289.89,289.89,0,0,0,279.23,656.13Z"/><path class="cls-6" d="M726.58,209.66l-70.24,70.11a290,290,0,0,0-30.5-58.5l66.61-66.48A380.66,380.66,0,0,1,726.58,209.66Z"/><path class="cls-6" d="M422.75,673.1,330.9,764.77a377.44,377.44,0,0,1-42.25-8.31L370,675.28c4.71.24,9.43.35,14.21.35A295.09,295.09,0,0,0,422.75,673.1Z"/><path class="cls-6" d="M764.85,331.66v0L673,423.33a292.94,292.94,0,0,0,2.61-39.11q0-6.83-.32-13.6l81.35-81.2A377,377,0,0,1,764.85,331.66Z"/><path class="cls-4" d="M361.29,372.87h34.29q29.3,0,39.77-12.14t10.48-26q0-15.47-11.55-27.5t-32.26-12q-39.54,0-49.77,41.68l-67.4-10.72q8.34-37.62,40.37-62.27t78.93-24.65q49.05,0,82.52,23.36t33.46,63.86q0,53.14-55.73,72.69,65.49,17.37,65.49,77.1,0,42.82-33.46,70.43t-92.28,27.61q-56.43,0-89.41-28.39T275.09,475.5l69.06-10q10,50.25,58.1,50.25,22.38,0,36.31-11.87t13.94-31.83q0-21.12-12.74-31.58T391.06,430H361.29Z"/><path class="cls-5" d="M347.34,358.92h34.29q29.3,0,39.77-12.14t10.48-26q0-15.46-11.55-27.5t-32.26-12q-39.54,0-49.77,41.68l-67.4-10.72q8.34-37.62,40.37-62.27t78.93-24.65q49.07,0,82.52,23.36t33.46,63.86q0,53.15-55.73,72.69,65.49,17.37,65.49,77.1,0,42.82-33.46,70.43T390.2,560.38q-56.43,0-89.41-28.39t-39.65-70.43l69.06-10q10,50.25,58.1,50.25,22.38,0,36.31-11.87t13.94-31.83q0-21.12-12.74-31.58t-48.7-10.45H347.34Z"/><path class="cls-6" d="M380.77,225.61l-90,89.83-19.91-3.17q8.37-37.66,40.38-62.29Q340,227.86,380.77,225.61Z"/><path class="cls-6" d="M506.17,312.55c0,1.49,0,3-.1,4.39L404.62,418.18a154.46,154.46,0,0,0-27.51-2.1H347.33V406.7L396.12,358c11.75-1.57,20.18-5.34,25.28-11.23q9.89-11.46,10.46-24.45l58.06-57.92Q506.19,284.35,506.17,312.55Z"/><path class="cls-6" d="M342,480.7l-46.48,46.41a113,113,0,0,1-27.72-41l29.92-29.88,32.54-4.71C332.54,463.37,336.45,473.06,342,480.7Z"/><path class="cls-4" d="M396.12,358l35.74-35.68q-.58,13-10.46,24.45C416.3,352.68,407.87,356.45,396.12,358Z"/><path class="cls-6" d="M508.62,427.21,375.68,559.86Q335.41,557,308.48,538L354,492.52q13.61,9.27,34.28,9.28,22.4,0,36.31-11.86c9.31-7.91,13.95-18.55,13.95-31.84q0-21.12-12.77-31.59a30.56,30.56,0,0,0-3.31-2.3L459,387.76h0Q495.55,399.91,508.62,427.21Z"/></g></g></svg>